<?xml version="1.0" standalone="no"?>
<!DOCTYPE svg PUBLIC "-//W3C//DTD SVG 20010904//EN"
 "http://www.w3.org/TR/2001/REC-SVG-20010904/DTD/svg10.dtd">
<svg version="1.0" xmlns="http://www.w3.org/2000/svg"
 width="512.000000pt" height="512.000000pt" viewBox="0 0 512.000000 512.000000"
 preserveAspectRatio="xMidYMid meet">
<metadata>
Created by potrace 1.14, written by Peter Selinger 2001-2017
</metadata>
<g transform="translate(0.000000,512.000000) scale(0.100000,-0.100000)"
fill="#000000" stroke="none">
<path d="M2408 5114 c-2 -1 -41 -5 -88 -9 -47 -4 -87 -8 -90 -10 -3 -2 -29 -6
-59 -10 -62 -8 -62 -8 -156 -30 -38 -10 -74 -18 -80 -19 -37 -9 -103 -28 -120
-36 -11 -4 -51 -19 -90 -32 -38 -13 -71 -26 -73 -30 -2 -5 -10 -8 -17 -8 -17
0 -88 -32 -96 -43 -3 -5 -10 -9 -15 -9 -50 0 -390 -213 -489 -306 -14 -13 -25
-21 -25 -18 0 14 -188 -170 -268 -263 -31 -36 -60 -67 -64 -69 -5 -2 -8 -8 -8
-13 0 -5 -8 -17 -17 -27 -29 -31 -46 -53 -100 -137 -29 -44 -56 -85 -60 -91
-32 -43 -128 -235 -167 -334 -21 -52 -43 -106 -49 -120 -6 -14 -11 -29 -12
-35 -1 -5 -3 -12 -4 -15 -2 -3 -5 -14 -7 -25 -6 -24 -9 -35 -17 -55 -13 -33
-37 -136 -40 -172 -1 -10 -5 -18 -10 -18 -4 0 -6 -3 -4 -7 3 -5 -1 -37 -7 -73
-7 -36 -12 -75 -11 -88 1 -12 -1 -22 -4 -22 -8 0 -11 -64 -14 -292 -1 -109 0
-198 3 -198 3 0 5 -18 4 -40 0 -23 3 -43 8 -46 4 -3 6 -9 3 -14 -3 -4 2 -47
10 -94 8 -48 17 -96 18 -106 2 -11 6 -23 10 -26 4 -4 7 -20 7 -35 0 -15 10
-58 23 -96 13 -38 22 -74 19 -81 -2 -6 1 -12 6 -12 5 0 13 -15 17 -32 11 -49
11 -47 45 -128 52 -124 142 -301 170 -335 7 -8 9 -15 4 -15 -5 0 -4 -4 2 -8 5
-4 21 -25 34 -47 13 -22 32 -49 42 -59 10 -11 18 -23 18 -27 0 -3 13 -22 30
-40 16 -19 30 -38 30 -42 0 -5 12 -21 28 -37 15 -15 43 -47 62 -70 19 -23 50
-57 68 -75 27 -27 33 -41 37 -91 10 -103 34 -227 56 -279 4 -11 11 -31 15 -45
8 -28 55 -132 64 -140 3 -3 11 -17 19 -32 8 -15 23 -37 33 -48 10 -11 16 -20
14 -20 -3 0 9 -16 27 -36 75 -84 105 -113 111 -107 3 4 6 -1 6 -10 0 -10 6
-17 13 -17 8 0 22 -9 32 -20 10 -11 24 -20 32 -20 7 0 13 -4 13 -8 0 -8 46
-36 131 -78 57 -28 167 -61 242 -72 58 -9 240 -8 290 2 15 3 37 7 50 9 69 12
126 23 130 27 1 1 11 3 22 5 11 2 36 7 55 11 19 4 42 8 50 9 8 1 25 5 37 9 13
4 35 9 50 12 64 10 89 17 101 26 8 7 12 7 12 -1 0 -8 12 -4 30 9 17 12 30 18
30 14 0 -21 124 92 134 122 4 14 15 20 38 20 50 1 187 14 238 24 25 4 52 8 60
8 8 0 24 3 35 5 11 3 52 12 90 21 139 32 426 130 433 148 2 4 10 8 17 8 15 0
86 31 95 41 3 3 35 20 73 39 37 18 67 37 67 42 0 4 6 8 13 8 11 0 165 100 200
131 7 5 26 20 43 32 85 61 259 226 339 323 22 26 50 58 63 70 12 13 22 27 22
32 0 5 9 17 20 27 11 10 20 24 20 32 0 7 4 13 9 13 5 0 20 17 32 38 13 20 25
39 29 42 26 23 206 365 216 410 0 3 7 19 14 35 7 17 14 33 14 37 1 3 4 10 9
14 4 4 7 16 7 26 0 10 4 26 10 36 15 28 50 155 44 164 -3 4 -1 8 4 8 8 0 17
35 27 100 1 8 7 40 13 70 6 30 13 69 16 85 2 17 5 30 6 30 1 0 3 30 4 66 2 36
6 71 10 77 4 7 2 12 -6 12 -9 0 -10 3 -2 8 14 9 8 437 -6 437 -1 0 -4 27 -6
60 -3 33 -8 62 -12 65 -4 3 -8 14 -8 25 -3 36 -23 142 -31 165 -3 8 -8 24 -10
35 -2 11 -7 31 -13 45 -5 14 -10 34 -12 45 -2 11 -6 22 -10 25 -4 3 -9 15 -11
25 -9 46 -92 244 -140 335 -66 124 -145 252 -159 258 -5 2 -8 8 -8 14 0 8 -74
110 -105 144 -5 6 -29 33 -52 60 -80 94 -181 193 -292 284 -24 19 -58 48 -77
64 -19 15 -34 25 -34 21 0 -3 -7 0 -15 7 -31 28 -45 38 -126 89 -146 91 -436
227 -514 241 -11 1 -22 6 -25 10 -3 4 -19 10 -35 13 -69 14 -79 16 -87 21 -5
3 -21 8 -36 10 -15 3 -43 9 -62 14 -48 12 -89 20 -128 25 -18 2 -45 6 -60 9
-66 12 -159 19 -314 21 -92 1 -169 1 -170 -1z"/>
</g>
</svg>
